<svg xmlns="http://www.w3.org/2000/svg" viewBox="0 0 100 100" width="500" height="500" class="illustration"><defs><style>.cls-1,.cls-9{fill:#fff;}.cls-1,.cls-10,.cls-3,.cls-4,.cls-5,.cls-7,.cls-9{stroke:#231f20;}.cls-1,.cls-3{stroke-miterlimit:10;}.cls-1,.cls-10,.cls-3,.cls-4,.cls-5,.cls-6,.cls-7,.cls-9{stroke-width:1.5px;}.cls-2{fill:#0099f5;}.cls-3,.cls-7{fill:none;}.cls-4,.cls-8{fill:#231f20;}.cls-10,.cls-4,.cls-5,.cls-6,.cls-7,.cls-9{stroke-linejoin:bevel;}.cls-5,.cls-6{fill:#ffd44d;}.cls-6{stroke:#fff;}.cls-10{fill:#545454;}</style></defs><g id="Layer_2" data-name="Layer 2"><path class="cls-1" d="M81.56,22.24V19.69A3.72,3.72,0,0,0,77.84,16H13.66a3.72,3.72,0,0,0-3.72,3.73v2.55Z"></path><path class="cls-2" d="M12.45,26.36H79.19a2.3,2.3,0,0,1,2.3,2.3v38a3.16,3.16,0,0,1-3.16,3.16h-65a3.16,3.16,0,0,1-3.16-3.16v-38a2.3,2.3,0,0,1,2.3-2.3Z"></path><path class="cls-3" d="M53.09,26.36H78.78a2.71,2.71,0,0,1,2.71,2.71v37a3.75,3.75,0,0,1-3.75,3.76H13.9a3.75,3.75,0,0,1-3.75-3.76v-37a2.71,2.71,0,0,1,2.71-2.71H38"></path><rect class="cls-4" x="20.29" y="33.88" width="29.51" height="28.02" rx="2.63"></rect><rect class="cls-5" x="17.3" y="33.88" width="29.51" height="28.02" rx="2.63"></rect><line class="cls-5" x1="60.81" y1="26.36" x2="60.81" y2="69.84"></line><line class="cls-5" x1="65.68" y1="33.46" x2="76.07" y2="33.46"></line><line class="cls-6" x1="65.68" y1="37.04" x2="71.17" y2="37.04"></line><line class="cls-6" x1="65.68" y1="40.63" x2="68.43" y2="40.63"></line><line class="cls-5" x1="65.68" y1="49.54" x2="71.17" y2="49.54"></line><line class="cls-6" x1="65.68" y1="53.08" x2="76.07" y2="53.08"></line><line class="cls-5" x1="65.68" y1="56.67" x2="73.29" y2="56.67"></line><line class="cls-6" x1="65.68" y1="60.26" x2="68.43" y2="60.26"></line><polyline class="cls-7" points="29.35 41.24 25.72 44.87 29.35 48.5"></polyline><polyline class="cls-7" points="34.76 54.25 38.39 50.62 34.76 46.99"></polyline><line class="cls-7" x1="36.28" y1="40.63" x2="27.92" y2="55.15"></line><rect class="cls-8" x="13.31" y="18.07" width="2.05" height="2.05" rx="0.86"></rect><rect class="cls-8" x="19.27" y="18.07" width="2.05" height="2.05" rx="0.86"></rect><rect class="cls-8" x="25.22" y="18.07" width="2.05" height="2.05" rx="0.86"></rect><rect class="cls-9" x="67.06" y="58.88" width="27" height="25.16" rx="12.58"></rect><rect class="cls-10" x="75.46" y="70.57" width="10.19" height="6.17"></rect><line class="cls-10" x1="87.89" y1="69.99" x2="87.89" y2="73.98"></line><polygon class="cls-10" points="80.56 73.52 70.74 69.99 80.56 66.46 90.37 69.99 80.56 73.52"></polygon></g></svg>